<svg xmlns="http://www.w3.org/2000/svg" version="1.1" xmlns:xlink="http://www.w3.org/1999/xlink" xmlns:svgjs="http://svgjs.com/svgjs" width="512" height="512" x="0" y="0" viewBox="0 0 32 32" style="enable-background:new 0 0 512 512" xml:space="preserve" class=""><g><g xmlns="http://www.w3.org/2000/svg" id="Layer_1"><g fill="rgb(0,0,0)"><path d="m25.86 30c1.08 0 2.12-.46 2.84-1.27s1.06-1.89.93-2.96l-2.35-20.41c-.22-1.91-1.84-3.36-3.77-3.36h-15.02c-1.93 0-3.55 1.45-3.77 3.36l-2.35 20.41c-.13 1.07.21 2.15.93 2.96s1.76 1.27 2.84 1.27zm-21.51-4 2.36-20.41c.1-.91.87-1.59 1.78-1.59h15.02c.91 0 1.68.68 1.78 1.59l2.36 20.41c.06.51-.1 1.01-.45 1.4-.34.39-.82.6-1.34.6h-19.72c-.52 0-1-.21-1.34-.6-.35-.39-.51-.89-.45-1.4z" fill="#000000" data-original="#000000" class=""></path><path d="m16 14c3.3086 0 6-2.6914 6-6v-1c0-.5522-.4478-1-1-1s-1 .4478-1 1v1c0 2.2056-1.7944 4-4 4s-4-1.7944-4-4v-1c0-.5522-.4478-1-1-1s-1 .4478-1 1v1c0 3.3086 2.6914 6 6 6z" fill="#000000" data-original="#000000" class=""></path></g></g></g></svg>